# xmcd
#
# Track frame offsets:
#	150
#	11845
#	28345
#	42495
#	55895
#	70397
#	85585
#	101015
#	113562
#	124637
#	138240
#	150820
#	164207
#	176022
#	187122
#	204518
#	217321
#	230136
#	240904
#	254362
#
# Disc length: 3543 seconds
#
# Revision: 2
# Processed by: cddbd v1.5.2PL0 Copyright (c) Steve Scherf et al.
# Submitted via: audiograbber 1.83.01
#
DISCID=210dd514
DTITLE=Matt Monro - Starportrait
DYEAR=2004
DGENRE=Easy Listening
TTITLE0=From Russia With Love
TTITLE1=The Shadow Of Your Smile
TTITLE2=Walk Away
TTITLE3=My Kind Of Girl
TTITLE4=Unchained Melody
TTITLE5=For All We Know
TTITLE6=Softly As I Leave You
TTITLE7=Portrait Of My Love
TTITLE8=And You Smiled
TTITLE9=My Love And Devotion
TTITLE10=Love Is A Many Splendoured Thing
TTITLE11=For Mama
TTITLE12=Without You
TTITLE13=Why Not Now
TTITLE14=Didn't We
TTITLE15=Yesterday
TTITLE16=Born Free
TTITLE17=When Love Comes Along
TTITLE18=Alfie
TTITLE19=Let's Face The Music And Dance
EXTD=
EXTT0=
EXTT1=
EXTT2=
EXTT3=
EXTT4=
EXTT5=
EXTT6=
EXTT7=
EXTT8=
EXTT9=
EXTT10=
EXTT11=
EXTT12=
EXTT13=
EXTT14=
EXTT15=
EXTT16=
EXTT17=
EXTT18=
EXTT19=
PLAYORDER=
